<svg width="27" height="23" viewBox="0 0 27 23" fill="none" xmlns="http://www.w3.org/2000/svg">
<path d="M0.960938 1.04297C1.07812 0.558594 1.32422 0.273437 1.69922 0.1875C2.08203 0.09375 2.4375 0.210938 2.76562 0.539062C3.33594 1.13281 3.9375 1.5625 4.57031 1.82812C5.20312 2.09375 5.84375 2.26172 6.49219 2.33203C7.14062 2.39453 7.77344 2.42578 8.39062 2.42578C8.96875 2.42578 9.59766 2.38281 10.2773 2.29688C10.957 2.21094 11.6484 2.12891 12.3516 2.05078C13.0547 1.96484 13.7305 1.92188 14.3789 1.92188C16.3945 1.92188 18.1484 2.26172 19.6406 2.94141C21.1406 3.62109 22.3047 4.62109 23.1328 5.94141C23.9688 7.26172 24.3867 8.88672 24.3867 10.8164C24.3867 11.0977 24.375 11.3672 24.3516 11.625C24.3359 11.875 24.3125 12.082 24.2812 12.2461C24.2344 12.543 24.0703 12.7344 23.7891 12.8203C23.5078 12.8984 23.2305 12.8164 22.957 12.5742C22.1211 11.8086 21.2734 11.2422 20.4141 10.875C19.5547 10.5078 18.6953 10.2539 17.8359 10.1133C16.9844 9.97266 16.1367 9.875 15.293 9.82031C14.4492 9.76562 13.6211 9.67578 12.8086 9.55078C12.0039 9.41797 11.2227 9.17969 10.4648 8.83594C9.71484 8.48438 9 7.94141 8.32031 7.20703C8.1875 7.06641 8.05469 7.03516 7.92188 7.11328C7.79688 7.19141 7.76562 7.3125 7.82812 7.47656C8.14844 8.35938 8.62109 9.04297 9.24609 9.52734C9.87891 10.0039 10.6172 10.3633 11.4609 10.6055C12.3125 10.8477 13.2305 11.0469 14.2148 11.2031C15.207 11.3594 16.2227 11.5508 17.2617 11.7773C18.3086 12.0039 19.3398 12.3398 20.3555 12.7852C21.3711 13.2305 22.3281 13.8711 23.2266 14.707C23.5391 14.9961 23.9023 15.3789 24.3164 15.8555C24.7383 16.332 25.1484 16.8477 25.5469 17.4023C25.9531 17.957 26.2852 18.5039 26.543 19.043C26.8086 19.582 26.9414 20.0625 26.9414 20.4844C26.9414 21.0547 26.7656 21.5312 26.4141 21.9141C26.0625 22.3047 25.6406 22.5 25.1484 22.5C24.8828 22.5 24.6445 22.4258 24.4336 22.2773C24.2305 22.1289 24.0781 21.9023 23.9766 21.5977C23.7109 20.7461 23.4453 19.9766 23.1797 19.2891C22.9219 18.5938 22.6055 17.9414 22.2305 17.332C21.8633 16.7148 21.3789 16.0898 20.7773 15.457L23.0039 15.6445C22.8711 15.8477 22.6641 16.125 22.3828 16.4766C22.1016 16.8203 21.7305 17.1953 21.2695 17.6016C20.8164 18.0078 20.2617 18.3906 19.6055 18.75C18.957 19.1094 18.1953 19.4062 17.3203 19.6406C16.4531 19.875 15.4609 19.9922 14.3438 19.9922C12.2656 19.9922 10.3828 19.6367 8.69531 18.9258C7.01562 18.207 5.57031 17.1875 4.35938 15.8672C3.14844 14.5469 2.21875 12.9648 1.57031 11.1211C0.921875 9.27734 0.597656 7.22266 0.597656 4.95703C0.597656 4.40234 0.625 3.76172 0.679688 3.03516C0.734375 2.30859 0.828125 1.64453 0.960938 1.04297Z" fill="#6B812D"/>
</svg>
