<svg width="16" height="18" viewBox="0 0 16 18" fill="none" xmlns="http://www.w3.org/2000/svg">
<path d="M14.5625 7.29163C14.5625 12.3958 8 16.7708 8 16.7708C8 16.7708 1.4375 12.3958 1.4375 7.29163C1.4375 5.55114 2.1289 3.88195 3.35961 2.65124C4.59032 1.42053 6.25952 0.729126 8 0.729126C9.74048 0.729126 11.4097 1.42053 12.6404 2.65124C13.8711 3.88195 14.5625 5.55114 14.5625 7.29163Z" stroke="white" stroke-linecap="round" stroke-linejoin="round"/>
<path d="M8 9.47913C9.20812 9.47913 10.1875 8.49975 10.1875 7.29163C10.1875 6.0835 9.20812 5.10413 8 5.10413C6.79188 5.10413 5.8125 6.0835 5.8125 7.29163C5.8125 8.49975 6.79188 9.47913 8 9.47913Z" stroke="white" stroke-linecap="round" stroke-linejoin="round"/>
</svg>
