<svg width="13" height="16" viewBox="0 0 13 16" fill="none" xmlns="http://www.w3.org/2000/svg">
<path d="M6.25977 15.1064C5.42578 15.1064 4.64421 14.9492 3.91504 14.6348C3.18587 14.3249 2.54329 13.8942 1.9873 13.3428C1.43587 12.7868 1.00293 12.1442 0.688477 11.415C0.378581 10.6859 0.223633 9.9043 0.223633 9.07031C0.223633 8.23633 0.378581 7.45475 0.688477 6.72559C1.00293 5.99642 1.43587 5.35612 1.9873 4.80469C2.54329 4.2487 3.18587 3.81576 3.91504 3.50586C4.64421 3.19141 5.42578 3.03418 6.25977 3.03418C6.62435 3.03418 6.97982 3.06608 7.32617 3.12988C7.67253 3.19368 8.00293 3.28483 8.31738 3.40332C8.41309 3.43978 8.51107 3.49674 8.61133 3.57422C8.71159 3.65169 8.75944 3.77702 8.75488 3.9502C8.75488 4.09147 8.71387 4.20768 8.63184 4.29883C8.55436 4.38542 8.45638 4.44238 8.33789 4.46973C8.2194 4.49251 8.10319 4.48112 7.98926 4.43555C7.71582 4.33529 7.43555 4.26009 7.14844 4.20996C6.86133 4.15527 6.5651 4.12793 6.25977 4.12793C5.58073 4.12793 4.94271 4.25553 4.3457 4.51074C3.7487 4.76595 3.22233 5.12142 2.7666 5.57715C2.31543 6.02832 1.96224 6.55241 1.70703 7.14941C1.45182 7.74642 1.32422 8.38444 1.32422 9.06348C1.32422 9.74707 1.45182 10.3874 1.70703 10.9844C1.96224 11.5814 2.31543 12.1055 2.7666 12.5566C3.22233 13.0078 3.7487 13.361 4.3457 13.6162C4.94271 13.8714 5.58073 13.999 6.25977 13.999C6.94336 13.999 7.58366 13.8714 8.18066 13.6162C8.77767 13.361 9.30176 13.0078 9.75293 12.5566C10.2041 12.1055 10.5573 11.5814 10.8125 10.9844C11.0677 10.3874 11.1953 9.74707 11.1953 9.06348C11.1953 8.91309 11.25 8.78548 11.3594 8.68066C11.4688 8.57129 11.5986 8.5166 11.749 8.5166C11.8994 8.5166 12.027 8.57129 12.1318 8.68066C12.2412 8.78548 12.2959 8.91309 12.2959 9.06348C12.2959 9.90202 12.1387 10.6859 11.8242 11.415C11.5143 12.1442 11.0814 12.7868 10.5254 13.3428C9.97396 13.8942 9.33366 14.3249 8.60449 14.6348C7.87533 14.9492 7.09375 15.1064 6.25977 15.1064ZM8.1123 3.85449L5.62402 1.37988C5.56934 1.3252 5.5306 1.26367 5.50781 1.19531C5.48503 1.12695 5.47363 1.05632 5.47363 0.983398C5.47363 0.828451 5.52376 0.696289 5.62402 0.586914C5.72884 0.477539 5.85645 0.422852 6.00684 0.422852C6.16178 0.422852 6.29622 0.479818 6.41016 0.59375L9.21973 3.45117C9.33822 3.5651 9.39746 3.70182 9.39746 3.86133C9.39746 3.9388 9.38379 4.01172 9.35645 4.08008C9.3291 4.14844 9.28353 4.21224 9.21973 4.27148L6.40332 7.10156C6.29395 7.20638 6.16178 7.25879 6.00684 7.25879C5.85645 7.25879 5.72884 7.20638 5.62402 7.10156C5.52376 6.99674 5.47363 6.86458 5.47363 6.70508C5.47363 6.63672 5.48503 6.56836 5.50781 6.5C5.5306 6.43164 5.57161 6.3724 5.63086 6.32227L8.1123 3.85449Z" fill="white"/>
</svg>
