<svg width="22" height="26" viewBox="0 0 22 26" fill="none" xmlns="http://www.w3.org/2000/svg">
<path d="M4.60156 25.9414C3.27344 25.9414 2.25391 25.5859 1.54297 24.875C0.839844 24.1641 0.488281 23.1406 0.488281 21.8047V4.28516C0.488281 2.94922 0.839844 1.92578 1.54297 1.21484C2.25391 0.503906 3.27344 0.148438 4.60156 0.148438H9.89844V9.45312C9.89844 10.8672 10.6055 11.5742 12.0195 11.5742H21.2656V21.8047C21.2656 23.1406 20.9141 24.1641 20.2109 24.875C19.5078 25.5859 18.4883 25.9414 17.1523 25.9414H4.60156ZM12.5352 9.67578C12.0508 9.67578 11.8086 9.43359 11.8086 8.94922V0.253906C12.1133 0.277344 12.4141 0.398437 12.7109 0.617188C13.0156 0.835938 13.332 1.10938 13.6602 1.4375L19.9531 7.78906C20.2969 8.14062 20.5781 8.46875 20.7969 8.77344C21.0156 9.07031 21.1367 9.37109 21.1602 9.67578H12.5352Z" fill="#6B812D"/>
</svg>
