<svg width="97" height="22" viewBox="0 0 97 22" fill="none" xmlns="http://www.w3.org/2000/svg">
<path d="M8.17578 17.6445C6.62109 17.6445 5.26562 17.2852 4.10938 16.5664C2.96094 15.8477 2.07031 14.832 1.4375 13.5195C0.8125 12.207 0.5 10.6602 0.5 8.87891V8.86719C0.5 7.08594 0.8125 5.54297 1.4375 4.23828C2.07031 2.92578 2.96094 1.91406 4.10938 1.20312C5.25781 0.484375 6.61328 0.125 8.17578 0.125C9.34766 0.125 10.4141 0.351562 11.375 0.804688C12.3438 1.25 13.1484 1.875 13.7891 2.67969C14.4297 3.47656 14.8516 4.41406 15.0547 5.49219L15.0781 5.58594H12.9453L12.875 5.375C12.6641 4.67969 12.3398 4.08984 11.9023 3.60547C11.4648 3.11328 10.9297 2.73438 10.2969 2.46875C9.67188 2.20312 8.96484 2.07031 8.17578 2.07031C7.05859 2.07031 6.08594 2.35156 5.25781 2.91406C4.4375 3.46875 3.80078 4.25391 3.34766 5.26953C2.89453 6.28516 2.66797 7.48438 2.66797 8.86719V8.87891C2.66797 10.2539 2.89453 11.4531 3.34766 12.4766C3.80078 13.5 4.44141 14.293 5.26953 14.8555C6.09766 15.418 7.06641 15.6992 8.17578 15.6992C8.96484 15.6992 9.67188 15.5703 10.2969 15.3125C10.9219 15.0547 11.457 14.6758 11.9023 14.1758C12.3477 13.6758 12.6836 13.0664 12.9102 12.3477L12.9453 12.2539H15.0781L15.0547 12.3477C14.8516 13.418 14.4297 14.3516 13.7891 15.1484C13.1484 15.9453 12.3477 16.5625 11.3867 17C10.4336 17.4297 9.36328 17.6445 8.17578 17.6445Z" fill="#6B812D"/>
<path d="M21.6172 17.5742C20.7188 17.5742 19.9531 17.3906 19.3203 17.0234C18.6875 16.6562 18.2031 16.1328 17.8672 15.4531C17.5391 14.7734 17.375 13.9648 17.375 13.0273V5.07031H19.4141V12.6406C19.4141 13.6641 19.6445 14.4414 20.1055 14.9727C20.5664 15.5039 21.2734 15.7695 22.2266 15.7695C22.7188 15.7695 23.1602 15.6875 23.5508 15.5234C23.9492 15.3594 24.2891 15.125 24.5703 14.8203C24.8516 14.5156 25.0664 14.1523 25.2148 13.7305C25.3633 13.3008 25.4375 12.8242 25.4375 12.3008V5.07031H27.4766V17.3398H25.4375V15.582H25.3672C25.1484 15.9648 24.8633 16.3086 24.5117 16.6133C24.168 16.9102 23.7539 17.1445 23.2695 17.3164C22.7852 17.4883 22.2344 17.5742 21.6172 17.5742Z" fill="#6B812D"/>
<path d="M30.3359 17.3398V5.07031H32.375V7.09766H32.4453C32.6562 6.40234 33.0195 5.85156 33.5352 5.44531C34.0508 5.03906 34.6641 4.83594 35.375 4.83594C35.5625 4.83594 35.7305 4.84766 35.8789 4.87109C36.0352 4.88672 36.1562 4.90234 36.2422 4.91797V6.89844C36.1328 6.86719 35.9766 6.83984 35.7734 6.81641C35.5781 6.79297 35.3594 6.78125 35.1172 6.78125C34.5703 6.78125 34.0898 6.90234 33.6758 7.14453C33.2617 7.37891 32.9414 7.71875 32.7148 8.16406C32.4883 8.60938 32.375 9.14062 32.375 9.75781V17.3398H30.3359Z" fill="#6B812D"/>
<path d="M42.5469 17.5742C41.375 17.5742 40.3672 17.3164 39.5234 16.8008C38.6797 16.2773 38.0312 15.543 37.5781 14.5977C37.125 13.6523 36.8984 12.5391 36.8984 11.2578V11.2461C36.8984 9.97266 37.125 8.85547 37.5781 7.89453C38.0391 6.93359 38.6797 6.18359 39.5 5.64453C40.3281 5.10547 41.3008 4.83594 42.418 4.83594C43.5352 4.83594 44.4961 5.09375 45.3008 5.60938C46.1055 6.125 46.7227 6.84766 47.1523 7.77734C47.5898 8.69922 47.8086 9.77344 47.8086 11V11.7617H37.9297V10.168H46.7891L45.7578 11.6445V10.8477C45.7578 9.89453 45.6133 9.10938 45.3242 8.49219C45.043 7.86719 44.6484 7.40234 44.1406 7.09766C43.6406 6.79297 43.0625 6.64062 42.4062 6.64062C41.75 6.64062 41.1602 6.80078 40.6367 7.12109C40.1211 7.44141 39.7148 7.91406 39.418 8.53906C39.1211 9.16406 38.9727 9.93359 38.9727 10.8477V11.6445C38.9727 12.5117 39.1172 13.2539 39.4062 13.8711C39.7031 14.4805 40.1211 14.9492 40.6602 15.2773C41.207 15.6055 41.8516 15.7695 42.5938 15.7695C43.1172 15.7695 43.582 15.6914 43.9883 15.5352C44.4023 15.3789 44.7461 15.168 45.0195 14.9023C45.293 14.6289 45.4883 14.3242 45.6055 13.9883L45.6406 13.8828H47.6562L47.6328 14C47.5234 14.4844 47.3281 14.9453 47.0469 15.3828C46.7656 15.8125 46.4023 16.1914 45.957 16.5195C45.5117 16.8477 45 17.1055 44.4219 17.293C43.8516 17.4805 43.2266 17.5742 42.5469 17.5742Z" fill="#6B812D"/>
<path d="M50.1758 17.3398V0.300781H52.2148V17.3398H50.1758Z" fill="#6B812D"/>
<path d="M56.3281 21.5C56.1484 21.5 55.9609 21.4883 55.7656 21.4648C55.5781 21.4492 55.4141 21.4297 55.2734 21.4062V19.7422C55.3672 19.7578 55.4727 19.7734 55.5898 19.7891C55.7148 19.8047 55.8398 19.8125 55.9648 19.8125C56.6055 19.8125 57.1172 19.6914 57.5 19.4492C57.8828 19.2148 58.1953 18.75 58.4375 18.0547L58.6719 17.3516L54.125 5.07031H56.3047L59.8906 15.875L59.3867 15.2656H60.0547L59.5625 15.875L63.1484 5.07031H65.293L60.5 18.1016C60.2031 18.9062 59.8711 19.5586 59.5039 20.0586C59.1445 20.5586 58.7109 20.9219 58.2031 21.1484C57.6953 21.3828 57.0703 21.5 56.3281 21.5Z" fill="#6B812D"/>
<path d="M87.043 0.125C88.4237 0.125 89.543 1.24429 89.543 2.625V6.25C89.543 6.80228 89.9907 7.25 90.543 7.25H94.168C95.5487 7.25 96.668 8.36929 96.668 9.75V11.875C96.668 13.2557 95.5487 14.375 94.168 14.375H90.543C89.9907 14.375 89.543 14.8227 89.543 15.375V19C89.543 20.3807 88.4237 21.5 87.043 21.5H84.918C83.5373 21.5 82.418 20.3807 82.418 19V15.375C82.418 14.8227 81.9703 14.375 81.418 14.375H77.793C76.4123 14.375 75.293 13.2557 75.293 11.875V9.75C75.293 8.36929 76.4123 7.25 77.793 7.25H81.418C81.9703 7.25 82.418 6.80228 82.418 6.25V2.625C82.418 1.24429 83.5373 0.125 84.918 0.125H87.043Z" fill="#6B812D"/>
</svg>
