<svg width="131" height="41" viewBox="0 0 131 41" fill="none" xmlns="http://www.w3.org/2000/svg">
<path d="M62.4004 37.08H68.5704V39.66H62.4004V37.08ZM67.7604 37.71H63.2104V39.02H67.7604V37.71ZM61.8304 31.48H69.1004V32.13H61.8304V31.48ZM65.4804 32.49C66.4204 32.49 67.1404 32.6 67.6404 32.82C68.1471 33.0333 68.4004 33.35 68.4004 33.77C68.4004 34.19 68.1471 34.51 67.6404 34.73C67.1404 34.9433 66.4204 35.05 65.4804 35.05C64.5537 35.05 63.8337 34.9433 63.3204 34.73C62.8137 34.51 62.5604 34.19 62.5604 33.77C62.5604 33.35 62.8137 33.0333 63.3204 32.82C63.8337 32.6 64.5537 32.49 65.4804 32.49ZM65.4804 33.07C64.8337 33.07 64.3304 33.13 63.9704 33.25C63.6171 33.37 63.4404 33.5433 63.4404 33.77C63.4404 33.9967 63.6171 34.17 63.9704 34.29C64.3304 34.41 64.8337 34.47 65.4804 34.47C66.1337 34.47 66.6371 34.41 66.9904 34.29C67.3437 34.17 67.5204 33.9967 67.5204 33.77C67.5204 33.5433 67.3437 33.37 66.9904 33.25C66.6371 33.13 66.1337 33.07 65.4804 33.07ZM65.0704 30.6H65.9004V31.9H65.0704V30.6ZM61.4004 35.73H69.5704V36.39H61.4004V35.73ZM65.0704 34.84H65.9004V36.1H65.0704V34.84Z" fill="#6B812D"/>
<path d="M62.415 22.7529H68.585V16.0908C68.585 15.8389 68.5088 15.6367 68.3564 15.4844C68.21 15.332 68.0107 15.2559 67.7588 15.2559H63.25C62.998 15.2559 62.7959 15.332 62.6436 15.4844C62.4912 15.6367 62.415 15.8389 62.415 16.0908V22.7529ZM55.4365 22.1641V13.0586L64.7881 5.22754C65.0107 5.03418 65.2451 4.9375 65.4912 4.9375C65.7373 4.93164 65.9746 5.02832 66.2031 5.22754L75.5635 13.0762V22.1641C75.5635 22.9434 75.335 23.5527 74.8779 23.9922C74.4209 24.4316 73.7939 24.6514 72.9971 24.6514H57.9941C57.1973 24.6514 56.5703 24.4316 56.1133 23.9922C55.6621 23.5527 55.4365 22.9434 55.4365 22.1641ZM52.9492 12.7949C52.6328 12.7949 52.3838 12.7012 52.2021 12.5137C52.0205 12.3203 51.9297 12.0977 51.9297 11.8457C51.9297 11.7051 51.9619 11.5674 52.0264 11.4326C52.0908 11.292 52.1904 11.166 52.3252 11.0547L64.0322 1.22852C64.4893 0.841797 64.9785 0.648438 65.5 0.648438C66.0215 0.648438 66.5107 0.841797 66.9678 1.22852L78.6748 11.0547C78.8096 11.166 78.9092 11.292 78.9736 11.4326C79.0381 11.5674 79.0703 11.7051 79.0703 11.8457C79.0703 12.0977 78.9795 12.3203 78.7978 12.5137C78.6221 12.7012 78.373 12.7949 78.0508 12.7949C77.8984 12.7949 77.7549 12.7598 77.6201 12.6895C77.4912 12.6191 77.3652 12.5342 77.2422 12.4346L65.9834 2.98633C65.8311 2.85742 65.6699 2.79297 65.5 2.79297C65.3301 2.79297 65.1689 2.85742 65.0166 2.98633L53.7578 12.4346C53.6348 12.5342 53.5059 12.6191 53.3711 12.6895C53.2422 12.7598 53.1016 12.7949 52.9492 12.7949ZM72.8213 6.72168V3.98828C72.8213 3.75977 72.8916 3.57812 73.0322 3.44336C73.1787 3.30273 73.3662 3.23242 73.5947 3.23242H74.9834C75.2178 3.23242 75.4053 3.30273 75.5459 3.44336C75.6865 3.57812 75.7568 3.75977 75.7568 3.98828V9.18262L72.8213 6.72168Z" fill="#6B812D"/>
</svg>
