<svg width="131" height="40" viewBox="0 0 131 40" fill="none" xmlns="http://www.w3.org/2000/svg">
<path d="M43.3619 30.64H47.5119V36.48H43.3619V30.64ZM46.6919 31.3H44.1719V35.81H46.6919V31.3ZM49.1219 29.73H49.9519V38.78H49.1219V29.73ZM49.7619 33.34H51.4319V34.04H49.7619V33.34ZM58.7712 29.73H59.6012V38.79H58.7712V29.73ZM54.8312 30.43C55.2778 30.43 55.6712 30.56 56.0112 30.82C56.3578 31.0733 56.6278 31.4367 56.8212 31.91C57.0212 32.3833 57.1212 32.94 57.1212 33.58C57.1212 34.22 57.0212 34.7767 56.8212 35.25C56.6278 35.7233 56.3578 36.09 56.0112 36.35C55.6712 36.61 55.2778 36.74 54.8312 36.74C54.3845 36.74 53.9878 36.61 53.6412 36.35C53.2945 36.09 53.0212 35.7233 52.8212 35.25C52.6278 34.7767 52.5312 34.22 52.5312 33.58C52.5312 32.94 52.6278 32.3833 52.8212 31.91C53.0212 31.4367 53.2945 31.0733 53.6412 30.82C53.9878 30.56 54.3845 30.43 54.8312 30.43ZM54.8312 31.17C54.5312 31.17 54.2678 31.27 54.0412 31.47C53.8212 31.6633 53.6478 31.9433 53.5212 32.31C53.3945 32.67 53.3312 33.0933 53.3312 33.58C53.3312 34.0667 53.3945 34.4933 53.5212 34.86C53.6478 35.22 53.8212 35.5 54.0412 35.7C54.2678 35.9 54.5312 36 54.8312 36C55.1245 36 55.3812 35.9 55.6012 35.7C55.8278 35.5 56.0045 35.22 56.1312 34.86C56.2578 34.4933 56.3212 34.0667 56.3212 33.58C56.3212 33.0933 56.2578 32.67 56.1312 32.31C56.0045 31.9433 55.8278 31.6633 55.6012 31.47C55.3812 31.27 55.1245 31.17 54.8312 31.17ZM68.3204 29.73H69.1204V38.78H68.3204V29.73ZM65.3504 33.17H66.8404V33.91H65.3504V33.17ZM66.5704 29.95H67.3604V38.3H66.5704V29.95ZM61.4904 30.88H65.6104V31.56H61.4904V30.88ZM61.4004 36.55L61.3004 35.85C61.6004 35.85 61.937 35.85 62.3104 35.85C62.6837 35.8433 63.0737 35.8333 63.4804 35.82C63.887 35.8 64.2904 35.7767 64.6904 35.75C65.0904 35.7167 65.4637 35.6767 65.8104 35.63L65.8704 36.25C65.397 36.3367 64.887 36.4033 64.3404 36.45C63.8004 36.49 63.2737 36.5167 62.7604 36.53C62.247 36.5433 61.7937 36.55 61.4004 36.55ZM62.2304 31.32H62.9904V36.05H62.2304V31.32ZM64.1004 31.32H64.8704V36.05H64.1004V31.32ZM77.1696 29.73H77.9996V38.79H77.1696V29.73ZM73.2296 30.43C73.6763 30.43 74.0696 30.56 74.4096 30.82C74.7563 31.0733 75.0263 31.4367 75.2196 31.91C75.4196 32.3833 75.5196 32.94 75.5196 33.58C75.5196 34.22 75.4196 34.7767 75.2196 35.25C75.0263 35.7233 74.7563 36.09 74.4096 36.35C74.0696 36.61 73.6763 36.74 73.2296 36.74C72.7829 36.74 72.3863 36.61 72.0396 36.35C71.6929 36.09 71.4196 35.7233 71.2196 35.25C71.0263 34.7767 70.9296 34.22 70.9296 33.58C70.9296 32.94 71.0263 32.3833 71.2196 31.91C71.4196 31.4367 71.6929 31.0733 72.0396 30.82C72.3863 30.56 72.7829 30.43 73.2296 30.43ZM73.2296 31.17C72.9296 31.17 72.6663 31.27 72.4396 31.47C72.2196 31.6633 72.0463 31.9433 71.9196 32.31C71.7929 32.67 71.7296 33.0933 71.7296 33.58C71.7296 34.0667 71.7929 34.4933 71.9196 34.86C72.0463 35.22 72.2196 35.5 72.4396 35.7C72.6663 35.9 72.9296 36 73.2296 36C73.5229 36 73.7796 35.9 73.9996 35.7C74.2263 35.5 74.4029 35.22 74.5296 34.86C74.6563 34.4933 74.7196 34.0667 74.7196 33.58C74.7196 33.0933 74.6563 32.67 74.5296 32.31C74.4029 31.9433 74.2263 31.6633 73.9996 31.47C73.7796 31.27 73.5229 31.17 73.2296 31.17ZM82.1888 31.03H82.8688V32.49C82.8688 32.97 82.8021 33.4433 82.6688 33.91C82.5355 34.37 82.3488 34.8067 82.1088 35.22C81.8755 35.6267 81.6021 35.9867 81.2888 36.3C80.9755 36.6133 80.6388 36.86 80.2788 37.04L79.7988 36.38C80.1255 36.22 80.4321 36.0033 80.7188 35.73C81.0121 35.4567 81.2688 35.1433 81.4888 34.79C81.7088 34.4367 81.8788 34.0633 81.9988 33.67C82.1255 33.2767 82.1888 32.8833 82.1888 32.49V31.03ZM82.3588 31.03H83.0288V32.49C83.0288 32.87 83.0888 33.25 83.2088 33.63C83.3355 34.0033 83.5088 34.3567 83.7288 34.69C83.9555 35.0167 84.2121 35.3067 84.4988 35.56C84.7921 35.8133 85.1055 36.0133 85.4388 36.16L84.9788 36.82C84.6121 36.6467 84.2688 36.4133 83.9488 36.12C83.6288 35.8267 83.3488 35.49 83.1088 35.11C82.8755 34.7233 82.6921 34.31 82.5588 33.87C82.4255 33.4233 82.3588 32.9633 82.3588 32.49V31.03ZM80.0888 30.66H85.1388V31.35H80.0888V30.66ZM86.3688 29.73H87.1988V38.78H86.3688V29.73Z" fill="#999999"/>
<path d="M43.3619 30.64H47.5119V36.48H43.3619V30.64ZM46.6919 31.3H44.1719V35.81H46.6919V31.3ZM49.1219 29.73H49.9519V38.78H49.1219V29.73ZM49.7619 33.34H51.4319V34.04H49.7619V33.34ZM58.7712 29.73H59.6012V38.79H58.7712V29.73ZM54.8312 30.43C55.2778 30.43 55.6712 30.56 56.0112 30.82C56.3578 31.0733 56.6278 31.4367 56.8212 31.91C57.0212 32.3833 57.1212 32.94 57.1212 33.58C57.1212 34.22 57.0212 34.7767 56.8212 35.25C56.6278 35.7233 56.3578 36.09 56.0112 36.35C55.6712 36.61 55.2778 36.74 54.8312 36.74C54.3845 36.74 53.9878 36.61 53.6412 36.35C53.2945 36.09 53.0212 35.7233 52.8212 35.25C52.6278 34.7767 52.5312 34.22 52.5312 33.58C52.5312 32.94 52.6278 32.3833 52.8212 31.91C53.0212 31.4367 53.2945 31.0733 53.6412 30.82C53.9878 30.56 54.3845 30.43 54.8312 30.43ZM54.8312 31.17C54.5312 31.17 54.2678 31.27 54.0412 31.47C53.8212 31.6633 53.6478 31.9433 53.5212 32.31C53.3945 32.67 53.3312 33.0933 53.3312 33.58C53.3312 34.0667 53.3945 34.4933 53.5212 34.86C53.6478 35.22 53.8212 35.5 54.0412 35.7C54.2678 35.9 54.5312 36 54.8312 36C55.1245 36 55.3812 35.9 55.6012 35.7C55.8278 35.5 56.0045 35.22 56.1312 34.86C56.2578 34.4933 56.3212 34.0667 56.3212 33.58C56.3212 33.0933 56.2578 32.67 56.1312 32.31C56.0045 31.9433 55.8278 31.6633 55.6012 31.47C55.3812 31.27 55.1245 31.17 54.8312 31.17ZM68.3204 29.73H69.1204V38.78H68.3204V29.73ZM65.3504 33.17H66.8404V33.91H65.3504V33.17ZM66.5704 29.95H67.3604V38.3H66.5704V29.95ZM61.4904 30.88H65.6104V31.56H61.4904V30.88ZM61.4004 36.55L61.3004 35.85C61.6004 35.85 61.937 35.85 62.3104 35.85C62.6837 35.8433 63.0737 35.8333 63.4804 35.82C63.887 35.8 64.2904 35.7767 64.6904 35.75C65.0904 35.7167 65.4637 35.6767 65.8104 35.63L65.8704 36.25C65.397 36.3367 64.887 36.4033 64.3404 36.45C63.8004 36.49 63.2737 36.5167 62.7604 36.53C62.247 36.5433 61.7937 36.55 61.4004 36.55ZM62.2304 31.32H62.9904V36.05H62.2304V31.32ZM64.1004 31.32H64.8704V36.05H64.1004V31.32ZM77.1696 29.73H77.9996V38.79H77.1696V29.73ZM73.2296 30.43C73.6763 30.43 74.0696 30.56 74.4096 30.82C74.7563 31.0733 75.0263 31.4367 75.2196 31.91C75.4196 32.3833 75.5196 32.94 75.5196 33.58C75.5196 34.22 75.4196 34.7767 75.2196 35.25C75.0263 35.7233 74.7563 36.09 74.4096 36.35C74.0696 36.61 73.6763 36.74 73.2296 36.74C72.7829 36.74 72.3863 36.61 72.0396 36.35C71.6929 36.09 71.4196 35.7233 71.2196 35.25C71.0263 34.7767 70.9296 34.22 70.9296 33.58C70.9296 32.94 71.0263 32.3833 71.2196 31.91C71.4196 31.4367 71.6929 31.0733 72.0396 30.82C72.3863 30.56 72.7829 30.43 73.2296 30.43ZM73.2296 31.17C72.9296 31.17 72.6663 31.27 72.4396 31.47C72.2196 31.6633 72.0463 31.9433 71.9196 32.31C71.7929 32.67 71.7296 33.0933 71.7296 33.58C71.7296 34.0667 71.7929 34.4933 71.9196 34.86C72.0463 35.22 72.2196 35.5 72.4396 35.7C72.6663 35.9 72.9296 36 73.2296 36C73.5229 36 73.7796 35.9 73.9996 35.7C74.2263 35.5 74.4029 35.22 74.5296 34.86C74.6563 34.4933 74.7196 34.0667 74.7196 33.58C74.7196 33.0933 74.6563 32.67 74.5296 32.31C74.4029 31.9433 74.2263 31.6633 73.9996 31.47C73.7796 31.27 73.5229 31.17 73.2296 31.17ZM82.1888 31.03H82.8688V32.49C82.8688 32.97 82.8021 33.4433 82.6688 33.91C82.5355 34.37 82.3488 34.8067 82.1088 35.22C81.8755 35.6267 81.6021 35.9867 81.2888 36.3C80.9755 36.6133 80.6388 36.86 80.2788 37.04L79.7988 36.38C80.1255 36.22 80.4321 36.0033 80.7188 35.73C81.0121 35.4567 81.2688 35.1433 81.4888 34.79C81.7088 34.4367 81.8788 34.0633 81.9988 33.67C82.1255 33.2767 82.1888 32.8833 82.1888 32.49V31.03ZM82.3588 31.03H83.0288V32.49C83.0288 32.87 83.0888 33.25 83.2088 33.63C83.3355 34.0033 83.5088 34.3567 83.7288 34.69C83.9555 35.0167 84.2121 35.3067 84.4988 35.56C84.7921 35.8133 85.1055 36.0133 85.4388 36.16L84.9788 36.82C84.6121 36.6467 84.2688 36.4133 83.9488 36.12C83.6288 35.8267 83.3488 35.49 83.1088 35.11C82.8755 34.7233 82.6921 34.31 82.5588 33.87C82.4255 33.4233 82.3588 32.9633 82.3588 32.49V31.03ZM80.0888 30.66H85.1388V31.35H80.0888V30.66ZM86.3688 29.73H87.1988V38.78H86.3688V29.73Z" fill="#6B812D"/>
<path d="M57.8975 21.8408C57.2939 21.8408 56.8164 21.7031 56.4648 21.4277C56.1191 21.1523 55.9463 20.7773 55.9463 20.3027C55.9463 19.7168 56.0898 19.1045 56.3769 18.4658C56.6641 17.833 57.0771 17.2148 57.6162 16.6113C58.1611 16.002 58.8203 15.457 59.5937 14.9766C60.373 14.4902 61.2578 14.1035 62.248 13.8164C63.2383 13.5234 64.3193 13.377 65.4912 13.377C66.6689 13.377 67.7529 13.5234 68.7432 13.8164C69.7334 14.1035 70.6152 14.4902 71.3887 14.9766C72.168 15.457 72.8301 16.002 73.375 16.6113C73.9199 17.2148 74.333 17.833 74.6143 18.4658C74.9014 19.1045 75.0449 19.7168 75.0449 20.3027C75.0449 20.7773 74.8721 21.1523 74.5264 21.4277C74.1807 21.7031 73.7031 21.8408 73.0937 21.8408H57.8975ZM65.5 11.3643C64.8848 11.3643 64.3018 11.2354 63.751 10.9775C63.2061 10.7197 62.7227 10.3652 62.3008 9.91406C61.8848 9.45703 61.5566 8.92676 61.3164 8.32324C61.082 7.71387 60.9648 7.06055 60.9648 6.36328C60.9648 5.67773 61.082 5.03906 61.3164 4.44727C61.5566 3.85547 61.8877 3.33398 62.3096 2.88281C62.7314 2.43164 63.2148 2.08301 63.7598 1.83691C64.3105 1.58496 64.8906 1.45898 65.5 1.45898C66.1211 1.45898 66.7041 1.58203 67.249 1.82812C67.7939 2.07422 68.2744 2.41992 68.6904 2.86523C69.1123 3.31055 69.4434 3.8291 69.6836 4.4209C69.9238 5.0127 70.0439 5.6543 70.0439 6.3457C70.0439 7.2832 69.8359 8.13281 69.4199 8.89453C69.0098 9.65039 68.459 10.251 67.7676 10.6963C67.082 11.1416 66.3262 11.3643 65.5 11.3643Z" fill="#999999"/>
<path d="M57.8975 21.8408C57.2939 21.8408 56.8164 21.7031 56.4648 21.4277C56.1191 21.1523 55.9463 20.7773 55.9463 20.3027C55.9463 19.7168 56.0898 19.1045 56.3769 18.4658C56.6641 17.833 57.0771 17.2148 57.6162 16.6113C58.1611 16.002 58.8203 15.457 59.5937 14.9766C60.373 14.4902 61.2578 14.1035 62.248 13.8164C63.2383 13.5234 64.3193 13.377 65.4912 13.377C66.6689 13.377 67.7529 13.5234 68.7432 13.8164C69.7334 14.1035 70.6152 14.4902 71.3887 14.9766C72.168 15.457 72.8301 16.002 73.375 16.6113C73.9199 17.2148 74.333 17.833 74.6143 18.4658C74.9014 19.1045 75.0449 19.7168 75.0449 20.3027C75.0449 20.7773 74.8721 21.1523 74.5264 21.4277C74.1807 21.7031 73.7031 21.8408 73.0937 21.8408H57.8975ZM65.5 11.3643C64.8848 11.3643 64.3018 11.2354 63.751 10.9775C63.2061 10.7197 62.7227 10.3652 62.3008 9.91406C61.8848 9.45703 61.5566 8.92676 61.3164 8.32324C61.082 7.71387 60.9648 7.06055 60.9648 6.36328C60.9648 5.67773 61.082 5.03906 61.3164 4.44727C61.5566 3.85547 61.8877 3.33398 62.3096 2.88281C62.7314 2.43164 63.2148 2.08301 63.7598 1.83691C64.3105 1.58496 64.8906 1.45898 65.5 1.45898C66.1211 1.45898 66.7041 1.58203 67.249 1.82812C67.7939 2.07422 68.2744 2.41992 68.6904 2.86523C69.1123 3.31055 69.4434 3.8291 69.6836 4.4209C69.9238 5.0127 70.0439 5.6543 70.0439 6.3457C70.0439 7.2832 69.8359 8.13281 69.4199 8.89453C69.0098 9.65039 68.459 10.251 67.7676 10.6963C67.082 11.1416 66.3262 11.3643 65.5 11.3643Z" fill="#6B812D"/>
</svg>
