<svg width="131" height="41" viewBox="0 0 131 41" fill="none" xmlns="http://www.w3.org/2000/svg">
<path d="M47.2353 31.27H53.0053V31.95H47.2353V31.27ZM46.1953 34.89H54.3953V35.57H46.1953V34.89ZM52.5153 31.27H53.3353V31.97C53.3353 32.3833 53.322 32.85 53.2953 33.37C53.2753 33.8833 53.192 34.4833 53.0453 35.17L52.2253 35.09C52.372 34.4167 52.4553 33.8333 52.4753 33.34C52.502 32.84 52.5153 32.3833 52.5153 31.97V31.27ZM47.2753 38.89H53.6053V39.57H47.2753V38.89ZM47.2753 36.58H48.0953V38.98H47.2753V36.58ZM62.0045 30.73H62.8345V39.79H62.0045V30.73ZM60.0645 34.36H62.2445V35.04H60.0645V34.36ZM57.6945 32.88H58.3545V33.66C58.3545 34.1333 58.2945 34.5967 58.1745 35.05C58.0545 35.4967 57.8812 35.9133 57.6545 36.3C57.4279 36.6867 57.1645 37.03 56.8645 37.33C56.5645 37.6233 56.2345 37.8567 55.8745 38.03L55.4145 37.39C55.7412 37.23 56.0445 37.02 56.3245 36.76C56.6045 36.5 56.8479 36.2033 57.0545 35.87C57.2612 35.5367 57.4179 35.1833 57.5245 34.81C57.6379 34.43 57.6945 34.0467 57.6945 33.66V32.88ZM57.8545 32.88H58.5145V33.66C58.5145 34.0333 58.5712 34.4 58.6845 34.76C58.8045 35.1133 58.9679 35.45 59.1745 35.77C59.3812 36.09 59.6245 36.3767 59.9045 36.63C60.1912 36.8767 60.5012 37.0767 60.8345 37.23L60.3745 37.87C60.0079 37.7033 59.6712 37.4767 59.3645 37.19C59.0579 36.9033 58.7912 36.5767 58.5645 36.21C58.3379 35.8367 58.1612 35.4333 58.0345 35C57.9145 34.5667 57.8545 34.12 57.8545 33.66V32.88ZM55.6545 32.3H60.5245V32.97H55.6545V32.3ZM57.6945 30.9H58.5245V32.67H57.6945V30.9ZM71.6863 32.21H74.2363V32.88H71.6863V32.21ZM71.6863 34.06H74.2363V34.74H71.6863V34.06ZM67.8463 31.29H68.6763V32.73H71.1163V31.29H71.9363V35.54H67.8463V31.29ZM68.6763 33.39V34.88H71.1163V33.39H68.6763ZM74.0163 30.73H74.8463V36.2H74.0163V30.73ZM71.8663 36.39C72.4929 36.39 73.0296 36.4567 73.4763 36.59C73.9296 36.7233 74.2763 36.9167 74.5163 37.17C74.7563 37.4167 74.8763 37.72 74.8763 38.08C74.8763 38.6133 74.6063 39.0267 74.0663 39.32C73.5329 39.6133 72.7996 39.76 71.8663 39.76C70.9329 39.76 70.1963 39.6133 69.6563 39.32C69.1229 39.0267 68.8563 38.6133 68.8563 38.08C68.8563 37.72 68.9763 37.4167 69.2163 37.17C69.4629 36.9167 69.8096 36.7233 70.2563 36.59C70.7096 36.4567 71.2463 36.39 71.8663 36.39ZM71.8663 37.04C71.4129 37.04 71.0229 37.08 70.6963 37.16C70.3696 37.24 70.1163 37.3567 69.9363 37.51C69.7629 37.6633 69.6763 37.8533 69.6763 38.08C69.6763 38.2933 69.7629 38.4767 69.9363 38.63C70.1163 38.7833 70.3696 38.9033 70.6963 38.99C71.0229 39.07 71.4129 39.11 71.8663 39.11C72.3263 39.11 72.7163 39.07 73.0363 38.99C73.3629 38.9033 73.6129 38.7833 73.7863 38.63C73.9663 38.4767 74.0563 38.2933 74.0563 38.08C74.0563 37.8533 73.9663 37.6633 73.7863 37.51C73.6129 37.3567 73.3629 37.24 73.0363 37.16C72.7163 37.08 72.3263 37.04 71.8663 37.04ZM79.1655 35.29H79.9955V37.3H79.1655V35.29ZM83.1755 30.74H84.0055V37.61H83.1755V30.74ZM77.8355 38.9H84.2255V39.58H77.8355V38.9ZM77.8355 36.94H78.6655V39.08H77.8355V36.94ZM76.6655 35.6L76.5555 34.91C77.1155 34.91 77.7222 34.9067 78.3755 34.9C79.0355 34.8867 79.7088 34.8633 80.3955 34.83C81.0822 34.79 81.7455 34.73 82.3855 34.65L82.4455 35.25C81.7988 35.3567 81.1322 35.4367 80.4455 35.49C79.7655 35.5367 79.1022 35.5667 78.4555 35.58C77.8088 35.5933 77.2122 35.6 76.6655 35.6ZM81.3355 36.08H83.3955V36.68H81.3355V36.08ZM79.4955 31.1C79.9422 31.1 80.3322 31.1667 80.6655 31.3C80.9988 31.4267 81.2555 31.61 81.4355 31.85C81.6222 32.0833 81.7155 32.36 81.7155 32.68C81.7155 32.9933 81.6222 33.27 81.4355 33.51C81.2555 33.75 80.9988 33.9333 80.6655 34.06C80.3322 34.1867 79.9422 34.25 79.4955 34.25C79.0555 34.25 78.6655 34.1867 78.3255 34.06C77.9922 33.9333 77.7322 33.75 77.5455 33.51C77.3655 33.27 77.2755 32.9933 77.2755 32.68C77.2755 32.36 77.3655 32.0833 77.5455 31.85C77.7322 31.61 77.9922 31.4267 78.3255 31.3C78.6655 31.1667 79.0555 31.1 79.4955 31.1ZM79.4955 31.72C79.0688 31.72 78.7222 31.8067 78.4555 31.98C78.1888 32.1533 78.0555 32.3867 78.0555 32.68C78.0555 32.9667 78.1888 33.1967 78.4555 33.37C78.7222 33.5433 79.0688 33.63 79.4955 33.63C79.9155 33.63 80.2588 33.5433 80.5255 33.37C80.7922 33.1967 80.9255 32.9667 80.9255 32.68C80.9255 32.48 80.8655 32.31 80.7455 32.17C80.6255 32.03 80.4588 31.92 80.2455 31.84C80.0322 31.76 79.7822 31.72 79.4955 31.72Z" fill="#999999"/>
<path d="M47.2353 31.27H53.0053V31.95H47.2353V31.27ZM46.1953 34.89H54.3953V35.57H46.1953V34.89ZM52.5153 31.27H53.3353V31.97C53.3353 32.3833 53.322 32.85 53.2953 33.37C53.2753 33.8833 53.192 34.4833 53.0453 35.17L52.2253 35.09C52.372 34.4167 52.4553 33.8333 52.4753 33.34C52.502 32.84 52.5153 32.3833 52.5153 31.97V31.27ZM47.2753 38.89H53.6053V39.57H47.2753V38.89ZM47.2753 36.58H48.0953V38.98H47.2753V36.58ZM62.0045 30.73H62.8345V39.79H62.0045V30.73ZM60.0645 34.36H62.2445V35.04H60.0645V34.36ZM57.6945 32.88H58.3545V33.66C58.3545 34.1333 58.2945 34.5967 58.1745 35.05C58.0545 35.4967 57.8812 35.9133 57.6545 36.3C57.4279 36.6867 57.1645 37.03 56.8645 37.33C56.5645 37.6233 56.2345 37.8567 55.8745 38.03L55.4145 37.39C55.7412 37.23 56.0445 37.02 56.3245 36.76C56.6045 36.5 56.8479 36.2033 57.0545 35.87C57.2612 35.5367 57.4179 35.1833 57.5245 34.81C57.6379 34.43 57.6945 34.0467 57.6945 33.66V32.88ZM57.8545 32.88H58.5145V33.66C58.5145 34.0333 58.5712 34.4 58.6845 34.76C58.8045 35.1133 58.9679 35.45 59.1745 35.77C59.3812 36.09 59.6245 36.3767 59.9045 36.63C60.1912 36.8767 60.5012 37.0767 60.8345 37.23L60.3745 37.87C60.0079 37.7033 59.6712 37.4767 59.3645 37.19C59.0579 36.9033 58.7912 36.5767 58.5645 36.21C58.3379 35.8367 58.1612 35.4333 58.0345 35C57.9145 34.5667 57.8545 34.12 57.8545 33.66V32.88ZM55.6545 32.3H60.5245V32.97H55.6545V32.3ZM57.6945 30.9H58.5245V32.67H57.6945V30.9ZM71.6863 32.21H74.2363V32.88H71.6863V32.21ZM71.6863 34.06H74.2363V34.74H71.6863V34.06ZM67.8463 31.29H68.6763V32.73H71.1163V31.29H71.9363V35.54H67.8463V31.29ZM68.6763 33.39V34.88H71.1163V33.39H68.6763ZM74.0163 30.73H74.8463V36.2H74.0163V30.73ZM71.8663 36.39C72.4929 36.39 73.0296 36.4567 73.4763 36.59C73.9296 36.7233 74.2763 36.9167 74.5163 37.17C74.7563 37.4167 74.8763 37.72 74.8763 38.08C74.8763 38.6133 74.6063 39.0267 74.0663 39.32C73.5329 39.6133 72.7996 39.76 71.8663 39.76C70.9329 39.76 70.1963 39.6133 69.6563 39.32C69.1229 39.0267 68.8563 38.6133 68.8563 38.08C68.8563 37.72 68.9763 37.4167 69.2163 37.17C69.4629 36.9167 69.8096 36.7233 70.2563 36.59C70.7096 36.4567 71.2463 36.39 71.8663 36.39ZM71.8663 37.04C71.4129 37.04 71.0229 37.08 70.6963 37.16C70.3696 37.24 70.1163 37.3567 69.9363 37.51C69.7629 37.6633 69.6763 37.8533 69.6763 38.08C69.6763 38.2933 69.7629 38.4767 69.9363 38.63C70.1163 38.7833 70.3696 38.9033 70.6963 38.99C71.0229 39.07 71.4129 39.11 71.8663 39.11C72.3263 39.11 72.7163 39.07 73.0363 38.99C73.3629 38.9033 73.6129 38.7833 73.7863 38.63C73.9663 38.4767 74.0563 38.2933 74.0563 38.08C74.0563 37.8533 73.9663 37.6633 73.7863 37.51C73.6129 37.3567 73.3629 37.24 73.0363 37.16C72.7163 37.08 72.3263 37.04 71.8663 37.04ZM79.1655 35.29H79.9955V37.3H79.1655V35.29ZM83.1755 30.74H84.0055V37.61H83.1755V30.74ZM77.8355 38.9H84.2255V39.58H77.8355V38.9ZM77.8355 36.94H78.6655V39.08H77.8355V36.94ZM76.6655 35.6L76.5555 34.91C77.1155 34.91 77.7222 34.9067 78.3755 34.9C79.0355 34.8867 79.7088 34.8633 80.3955 34.83C81.0822 34.79 81.7455 34.73 82.3855 34.65L82.4455 35.25C81.7988 35.3567 81.1322 35.4367 80.4455 35.49C79.7655 35.5367 79.1022 35.5667 78.4555 35.58C77.8088 35.5933 77.2122 35.6 76.6655 35.6ZM81.3355 36.08H83.3955V36.68H81.3355V36.08ZM79.4955 31.1C79.9422 31.1 80.3322 31.1667 80.6655 31.3C80.9988 31.4267 81.2555 31.61 81.4355 31.85C81.6222 32.0833 81.7155 32.36 81.7155 32.68C81.7155 32.9933 81.6222 33.27 81.4355 33.51C81.2555 33.75 80.9988 33.9333 80.6655 34.06C80.3322 34.1867 79.9422 34.25 79.4955 34.25C79.0555 34.25 78.6655 34.1867 78.3255 34.06C77.9922 33.9333 77.7322 33.75 77.5455 33.51C77.3655 33.27 77.2755 32.9933 77.2755 32.68C77.2755 32.36 77.3655 32.0833 77.5455 31.85C77.7322 31.61 77.9922 31.4267 78.3255 31.3C78.6655 31.1667 79.0555 31.1 79.4955 31.1ZM79.4955 31.72C79.0688 31.72 78.7222 31.8067 78.4555 31.98C78.1888 32.1533 78.0555 32.3867 78.0555 32.68C78.0555 32.9667 78.1888 33.1967 78.4555 33.37C78.7222 33.5433 79.0688 33.63 79.4955 33.63C79.9155 33.63 80.2588 33.5433 80.5255 33.37C80.7922 33.1967 80.9255 32.9667 80.9255 32.68C80.9255 32.48 80.8655 32.31 80.7455 32.17C80.6255 32.03 80.4588 31.92 80.2455 31.84C80.0322 31.76 79.7822 31.72 79.4955 31.72Z" fill="#6B812D"/>
<path d="M53.4326 14.8428V10.4395C53.4326 9.95312 53.5352 9.52832 53.7402 9.16504C53.9453 8.7959 54.2295 8.51172 54.5928 8.3125C54.9619 8.10742 55.3926 8.00488 55.8848 8.00488H60.8682V3.03906C60.8682 2.54688 60.9678 2.11621 61.167 1.74707C61.3721 1.37793 61.6562 1.09375 62.0195 0.894531C62.3887 0.689453 62.8135 0.586914 63.2939 0.586914H67.7061C68.1924 0.586914 68.6172 0.689453 68.9805 0.894531C69.3437 1.09375 69.625 1.37793 69.8242 1.74707C70.0293 2.11621 70.1318 2.54688 70.1318 3.03906V8.00488H75.1152C75.6016 8.00488 76.0293 8.10742 76.3984 8.3125C76.7676 8.51172 77.0547 8.7959 77.2598 9.16504C77.4648 9.52832 77.5674 9.95312 77.5674 10.4395V14.8428C77.5674 15.335 77.4648 15.7627 77.2598 16.126C77.0547 16.4893 76.7676 16.7734 76.3984 16.9785C76.0293 17.1777 75.6016 17.2773 75.1152 17.2773H70.1318V22.2607C70.1318 22.7471 70.0293 23.1719 69.8242 23.5352C69.625 23.9043 69.3437 24.1914 68.9805 24.3965C68.6172 24.6016 68.1924 24.7041 67.7061 24.7041H63.2939C62.8135 24.7041 62.3887 24.6016 62.0195 24.3965C61.6562 24.1914 61.3721 23.9043 61.167 23.5352C60.9678 23.1719 60.8682 22.7471 60.8682 22.2607V17.2773H55.8936C55.4014 17.2773 54.9707 17.1777 54.6016 16.9785C54.2324 16.7734 53.9453 16.4893 53.7402 16.126C53.5352 15.7627 53.4326 15.335 53.4326 14.8428Z" fill="#999999"/>
<path d="M53.4326 14.8428V10.4395C53.4326 9.95312 53.5352 9.52832 53.7402 9.16504C53.9453 8.7959 54.2295 8.51172 54.5928 8.3125C54.9619 8.10742 55.3926 8.00488 55.8848 8.00488H60.8682V3.03906C60.8682 2.54688 60.9678 2.11621 61.167 1.74707C61.3721 1.37793 61.6562 1.09375 62.0195 0.894531C62.3887 0.689453 62.8135 0.586914 63.2939 0.586914H67.7061C68.1924 0.586914 68.6172 0.689453 68.9805 0.894531C69.3437 1.09375 69.625 1.37793 69.8242 1.74707C70.0293 2.11621 70.1318 2.54688 70.1318 3.03906V8.00488H75.1152C75.6016 8.00488 76.0293 8.10742 76.3984 8.3125C76.7676 8.51172 77.0547 8.7959 77.2598 9.16504C77.4648 9.52832 77.5674 9.95312 77.5674 10.4395V14.8428C77.5674 15.335 77.4648 15.7627 77.2598 16.126C77.0547 16.4893 76.7676 16.7734 76.3984 16.9785C76.0293 17.1777 75.6016 17.2773 75.1152 17.2773H70.1318V22.2607C70.1318 22.7471 70.0293 23.1719 69.8242 23.5352C69.625 23.9043 69.3437 24.1914 68.9805 24.3965C68.6172 24.6016 68.1924 24.7041 67.7061 24.7041H63.2939C62.8135 24.7041 62.3887 24.6016 62.0195 24.3965C61.6562 24.1914 61.3721 23.9043 61.167 23.5352C60.9678 23.1719 60.8682 22.7471 60.8682 22.2607V17.2773H55.8936C55.4014 17.2773 54.9707 17.1777 54.6016 16.9785C54.2324 16.7734 53.9453 16.4893 53.7402 16.126C53.5352 15.7627 53.4326 15.335 53.4326 14.8428Z" fill="#6B812D"/>
</svg>
